<?xml version="1.0" standalone="no"?>
<!DOCTYPE svg PUBLIC "-//W3C//DTD SVG 20010904//EN"
 "http://www.w3.org/TR/2001/REC-SVG-20010904/DTD/svg10.dtd">
<svg version="1.0" xmlns="http://www.w3.org/2000/svg"
 width="500.000000pt" height="500.000000pt" viewBox="0 0 500.000000 500.000000"
 preserveAspectRatio="xMidYMid meet">

<g transform="translate(0.000000,500.000000) scale(0.100000,-0.100000)"
fill="#000000" stroke="none">
<path d="M3876 3581 c-37 -114 -110 -189 -229 -233 -58 -22 -66 -27 -41 -27
46 -1 147 -56 189 -102 38 -43 85 -131 85 -161 0 -10 5 -18 10 -18 6 0 10 8
10 18 0 34 49 122 92 165 48 48 141 97 185 98 22 0 14 5 -33 23 -33 12 -77 32
-97 44 -68 43 -128 130 -145 209 l-8 38 -18 -54z"/>
<path d="M2291 3610 c-199 -26 -433 -114 -607 -230 -111 -75 -296 -263 -372
-378 -34 -52 -62 -98 -64 -104 -2 -5 -42 -12 -88 -15 -203 -11 -404 -49 -490
-93 -79 -40 -108 -106 -76 -168 16 -30 74 -87 122 -120 69 -47 235 -123 262
-120 54 6 28 32 -97 98 -147 78 -221 140 -221 187 0 65 97 110 297 137 117 16
253 29 253 24 0 -2 -14 -37 -31 -78 -147 -361 -125 -804 57 -1149 25 -47 41
-88 37 -91 -4 -4 -55 -13 -113 -19 -104 -12 -145 -28 -157 -58 -8 -19 45 -450
58 -474 20 -38 39 -39 250 -13 312 38 540 57 551 46 6 -6 -6 -12 -32 -16 -24
-4 -52 -17 -66 -31 -24 -24 -25 -24 -44 -5 -23 23 -112 28 -154 9 -32 -15 -52
-60 -37 -87 8 -15 8 -21 -2 -25 -7 -2 0 -15 20 -35 25 -26 40 -32 73 -32 53 0
110 24 117 50 5 19 6 19 35 -5 53 -44 179 -27 206 28 10 20 11 19 11 -12 1
-33 1 -34 39 -27 20 3 70 6 110 6 56 0 72 3 72 14 0 13 4 13 35 0 19 -7 48
-14 65 -14 37 0 100 25 100 39 0 6 14 11 31 11 22 0 32 -5 36 -20 4 -16 14
-20 49 -20 37 0 44 3 44 20 0 15 7 20 25 20 14 0 28 0 33 0 4 0 7 -8 7 -17 0
-25 14 -33 58 -33 36 0 37 1 38 38 0 31 2 34 9 15 13 -32 61 -53 120 -53 52 0
104 19 113 42 3 7 6 -2 6 -19 1 -32 2 -33 44 -33 42 0 44 1 53 38 l9 37 30
-42 c28 -40 33 -43 76 -43 34 0 49 4 53 16 6 15 10 14 32 -7 22 -20 36 -24 91
-24 80 0 101 19 101 91 0 70 -28 94 -112 94 -58 0 -67 -3 -87 -28 l-22 -27 5
32 c4 28 1 32 -25 37 -60 12 -66 9 -69 -36 l-3 -43 -29 42 c-15 23 -38 45 -50
49 -21 7 -21 7 -1 15 11 4 34 8 50 8 17 1 36 6 41 11 7 7 20 5 41 -5 21 -10
108 -22 255 -35 122 -10 276 -26 340 -35 64 -8 135 -16 158 -17 71 -2 76 9
105 238 14 110 25 217 25 237 0 53 -25 73 -99 82 -34 4 -77 9 -94 11 -18 2
-79 9 -137 16 -58 6 -106 12 -108 13 -1 1 18 43 43 93 112 223 165 487 144
718 -4 49 -6 90 -4 92 6 6 227 -88 318 -135 108 -56 187 -128 187 -171 0 -65
-102 -110 -314 -140 -120 -17 -141 -27 -116 -57 14 -17 43 -15 200 11 136 22
218 53 267 100 30 28 43 49 43 68 0 45 -38 104 -98 151 -67 54 -279 160 -409
205 l-91 32 -18 72 c-80 332 -287 629 -575 821 -150 101 -298 164 -484 205
-106 23 -343 34 -454 20z m164 -20 c9 -14 -7 -18 -120 -25 -81 -5 -98 -4 -87
6 6 7 47 16 90 19 42 4 85 8 94 8 9 1 20 -3 23 -8z m182 -6 c24 -3 46 -10 49
-16 5 -8 -7 -9 -41 -5 -26 4 -76 7 -111 7 -51 0 -64 3 -64 15 0 16 28 16 167
-1z m213 -44 c23 -10 22 -10 -10 -5 -19 3 -54 8 -77 12 -24 3 -47 11 -53 18
-8 10 3 10 52 -1 35 -7 74 -18 88 -24z m-635 22 c-11 -10 -145 -35 -152 -29
-5 6 105 35 137 36 14 1 20 -3 15 -7z m240 -67 l0 -60 -139 -8 c-76 -4 -141
-5 -144 -3 -7 7 29 94 44 107 15 12 129 27 194 25 l45 -1 0 -60z m246 44 c16
-8 64 -107 56 -115 -2 -2 -67 -1 -145 3 l-142 6 0 64 0 64 108 -7 c59 -3 114
-10 123 -15z m-528 -62 l-25 -62 -129 -26 c-71 -14 -129 -22 -129 -19 0 11 55
83 82 108 22 19 147 55 214 61 7 1 1 -25 -13 -62z m685 37 c76 -16 86 -21 118
-58 20 -23 42 -54 51 -69 14 -28 14 -29 -9 -21 -13 4 -72 17 -131 28 l-108 22
-25 59 c-13 33 -24 62 -24 64 0 2 10 1 23 -2 12 -3 59 -13 105 -23z m49 10
c-3 -3 -12 -4 -19 -1 -8 3 -5 6 6 6 11 1 17 -2 13 -5z m-974 -66 c-11 -13 -33
-42 -48 -65 -20 -32 -38 -46 -65 -53 -21 -6 -70 -24 -110 -40 -80 -33 -80 -31
-1 53 48 51 92 78 176 108 66 24 72 23 48 -3z m1124 -5 c38 -15 84 -37 104
-49 35 -22 123 -114 116 -121 -3 -2 -37 10 -78 26 -41 16 -87 33 -102 38 -18
5 -45 32 -74 71 -24 34 -42 62 -39 62 3 0 36 -12 73 -27z m-599 -71 c2 -20 -2
-34 -10 -36 -7 -3 -79 -7 -160 -10 l-147 -7 9 32 c5 17 12 34 14 37 6 6 197
20 251 18 38 -1 40 -3 43 -34z m259 22 c48 -5 52 -8 58 -35 4 -17 5 -32 3 -35
-3 -2 -72 -1 -154 4 l-149 7 -3 38 -3 37 98 -5 c54 -3 121 -8 150 -11z m-582
-46 l-7 -35 -101 -18 c-56 -9 -121 -23 -144 -30 -24 -7 -43 -11 -43 -9 0 2 8
19 17 39 18 38 23 40 158 69 73 16 118 23 123 20 2 -1 0 -17 -3 -36z m770 17
c141 -28 152 -32 164 -67 6 -17 9 -33 6 -36 -3 -3 -22 0 -42 6 -21 6 -81 18
-133 27 -52 9 -98 22 -102 28 -4 7 -8 24 -8 39 0 20 4 25 18 22 9 -2 53 -10
97 -19z m-1265 -77 c-17 -23 -54 -55 -83 -71 l-52 -30 25 28 c22 24 130 115
138 115 1 0 -11 -19 -28 -42z m1747 -64 l48 -44 -61 35 c-54 31 -80 57 -109
105 -11 18 57 -35 122 -96z m-1548 67 c-14 -39 -19 -42 -114 -76 -44 -15 -92
-34 -107 -42 -33 -16 -33 -15 -12 31 17 35 26 40 159 92 81 31 86 31 74 -5z
m621 -25 l0 -54 -77 -6 c-43 -3 -118 -8 -167 -12 l-89 -6 5 51 c3 28 7 54 10
57 8 7 152 21 241 23 l77 1 0 -54z m229 44 c52 -6 96 -11 97 -13 2 -1 6 -26
10 -56 l7 -53 -79 6 c-43 3 -118 8 -166 12 l-88 6 0 54 0 54 63 0 c34 0 104
-5 156 -10z m467 -14 c104 -35 152 -62 170 -97 8 -17 14 -32 12 -34 -2 -1 -46
15 -98 36 -52 21 -103 38 -113 39 -15 0 -47 51 -47 75 0 7 -1 7 76 -19z
m-1040 -71 l-7 -43 -55 -7 c-30 -3 -98 -17 -150 -29 -105 -26 -102 -27 -83 49
l11 44 92 21 c50 11 114 24 141 28 57 9 61 5 51 -63z m764 60 c25 -4 82 -16
128 -27 89 -22 92 -25 106 -99 l6 -36 -102 24 c-57 12 -125 26 -151 29 -53 7
-53 7 -61 77 -5 43 -4 48 12 43 9 -2 37 -8 62 -11z m-1075 -91 c-13 -70 -20
-79 -81 -98 -33 -10 -87 -31 -121 -47 -35 -15 -63 -25 -63 -22 0 4 7 30 17 59
15 50 19 54 75 79 60 27 156 63 172 64 4 1 5 -15 1 -35z m1447 -11 c48 -19 91
-40 96 -46 5 -7 16 -34 25 -61 19 -56 32 -56 -118 1 -124 47 -121 45 -128 85
-3 18 -9 41 -12 51 -7 16 -4 17 21 11 16 -4 68 -22 116 -41z m-1677 -6 c-8
-19 -23 -38 -32 -41 -10 -3 -42 -22 -72 -41 -30 -20 -55 -34 -57 -32 -11 10
50 74 106 112 36 24 66 42 68 41 1 -2 -4 -19 -13 -39z m1835 -2 c38 -25 77
-61 89 -80 11 -19 18 -35 16 -35 -2 0 -32 18 -66 40 -34 22 -66 40 -70 40 -5
0 -18 18 -29 40 -11 22 -18 40 -14 40 3 0 37 -20 74 -45z m-952 -117 l-3 -133
-149 -7 c-81 -3 -160 -9 -174 -13 l-25 -6 7 133 c4 73 9 134 11 136 7 7 146
19 238 21 l98 1 -3 -132z m260 123 c47 -4 77 -12 82 -21 6 -8 10 -70 10 -138
l0 -122 -25 6 c-14 4 -90 9 -168 13 l-142 6 -3 133 -3 132 88 -1 c48 0 121 -4
161 -8z m-612 -57 c-3 -26 -6 -86 -6 -133 l0 -87 -122 -22 c-68 -12 -140 -22
-160 -22 l-38 0 0 48 c1 66 17 183 27 193 10 10 110 36 207 54 106 19 100 21
92 -31z m898 10 c61 -13 113 -27 118 -32 9 -9 32 -251 25 -259 -3 -2 -43 5
-89 16 -46 11 -115 26 -154 32 l-71 11 -7 91 c-3 49 -6 110 -6 134 l0 44 38
-6 c20 -4 86 -18 146 -31z m-1457 -28 c-3 -8 -11 -33 -17 -55 -9 -33 -19 -44
-68 -71 -31 -18 -72 -44 -91 -57 l-33 -26 7 23 c26 83 44 104 135 163 60 39
75 44 67 23z m1937 -49 c47 -31 63 -50 82 -93 13 -30 24 -57 24 -59 0 -3 -30
14 -67 38 -38 24 -80 51 -94 60 -14 9 -29 28 -32 44 -4 15 -10 39 -13 52 -7
22 -6 23 17 11 13 -7 50 -31 83 -53z m-194 -11 l105 -41 11 -65 c12 -66 18
-200 9 -200 -3 0 -42 15 -87 34 -46 19 -101 39 -124 45 l-41 11 -6 118 c-3 64
-9 126 -13 136 -9 22 -3 21 146 -38z m-1514 -2 c-3 -26 -6 -75 -6 -110 l0 -64
-92 0 c-51 0 -110 3 -131 6 -42 7 -40 -1 -21 95 6 33 30 47 164 94 93 34 94
33 86 -21z m1792 -30 c-4 -3 -12 5 -18 18 -12 22 -12 22 6 6 10 -10 15 -20 12
-24z m-2064 -83 l-7 -51 -73 0 c-41 0 -74 2 -74 5 0 8 153 105 157 101 2 -2 1
-27 -3 -55z m1997 11 c41 -27 81 -58 90 -68 21 -24 69 -274 53 -274 -1 0 -39
25 -84 55 -45 30 -90 57 -100 60 -14 4 -19 22 -24 98 -4 50 -11 111 -15 135
-5 23 -5 42 -1 42 4 0 41 -22 81 -48z m-2169 -12 c-13 -41 -20 -50 -39 -50
-17 0 -22 4 -17 13 11 18 65 87 69 87 2 0 -4 -22 -13 -50z m2328 -57 c17 -29
30 -56 30 -60 0 -22 -82 77 -95 115 l-15 45 25 -23 c14 -13 39 -47 55 -77z
m-1202 -25 l-3 -53 -35 4 c-19 2 -96 11 -170 20 -125 15 -135 18 -138 38 -3
23 -3 23 113 36 17 2 76 5 133 6 l103 1 -3 -52z m325 36 c26 -6 27 -8 27 -75
0 -53 -3 -69 -14 -69 -12 0 -140 20 -293 45 -33 6 -33 6 -33 62 l0 56 143 -7
c78 -3 154 -9 170 -12z m-683 -24 c0 -22 -30 -26 -105 -13 l-40 7 65 12 c36 6
68 12 73 13 4 0 7 -8 7 -19z m945 -23 l100 -22 -4 -70 c-2 -38 -4 -71 -5 -72
-2 -3 -310 58 -315 62 -2 2 0 35 4 73 l7 69 56 -9 c32 -5 102 -19 157 -31z
m684 -122 c24 -47 51 -148 51 -187 0 -40 -22 -36 -75 13 -39 36 -45 47 -45 83
-1 22 -7 77 -15 121 -8 44 -15 85 -15 90 1 16 77 -77 99 -120z m-2444 63 c-4
-24 -10 -77 -14 -118 -6 -75 -6 -76 -66 -142 -32 -37 -60 -66 -62 -65 -1 2 2
39 6 82 10 97 40 177 87 239 45 59 59 60 49 4z m205 -3 c0 -38 -4 -47 -27 -61
-16 -9 -59 -38 -98 -63 -38 -25 -74 -48 -79 -50 -10 -4 -1 95 16 172 l10 47
89 0 89 0 0 -45z m138 39 l52 -7 -82 -33 c-45 -19 -86 -34 -90 -34 -10 0 -11
64 -1 73 8 9 52 9 121 1z m347 -24 c65 -6 121 -12 123 -15 2 -2 4 -49 5 -106
l2 -102 -100 -17 c-55 -10 -120 -23 -144 -29 -24 -7 -47 -9 -51 -4 -7 8 -30
208 -30 265 0 24 3 26 38 22 20 -2 91 -8 157 -14z m1399 -60 l46 -19 0 -54 0
-55 -102 25 c-157 37 -163 38 -162 51 1 7 2 39 3 72 l1 59 84 -29 c46 -17 105
-39 130 -50z m-1601 -42 c4 -62 10 -129 13 -149 l6 -37 -53 -17 c-30 -10 -87
-31 -127 -47 -40 -17 -75 -29 -77 -26 -6 6 -23 125 -31 214 l-6 81 63 26 c84
35 170 65 190 66 13 1 17 -17 22 -111z m522 67 c181 -23 165 -14 165 -94 l0
-68 -122 -6 c-68 -4 -144 -9 -170 -13 l-47 -7 -3 103 c-2 56 -1 103 1 105 2 2
15 2 30 0 14 -3 80 -12 146 -20z m347 -51 c84 -14 156 -29 161 -33 4 -4 4 -29
1 -55 l-7 -48 -36 6 c-20 3 -93 9 -163 12 l-128 7 0 69 c0 37 4 68 9 68 5 0
78 -12 163 -26z m924 -81 c54 -35 91 -70 82 -78 -4 -4 -80 15 -198 50 -11 4
-14 17 -12 55 l4 50 36 -22 c21 -12 60 -36 88 -55z m-2072 -30 c4 -54 11 -118
16 -143 8 -38 6 -47 -8 -58 -36 -26 -185 -122 -187 -120 -7 11 -26 138 -31
208 l-6 85 43 30 c70 49 143 93 155 94 7 1 14 -35 18 -96z m1494 48 c73 -15
135 -31 138 -34 4 -3 3 -27 -1 -53 -6 -44 -8 -46 -33 -40 -15 3 -82 17 -150
30 -68 13 -125 25 -127 27 -2 2 -1 25 2 52 4 35 10 47 22 47 9 0 76 -13 149
-29z m417 -156 c-3 -33 -10 -64 -14 -68 -4 -4 -41 5 -82 21 -41 16 -97 37
-125 46 -48 16 -50 18 -47 49 10 82 -4 78 144 43 l131 -31 -7 -60z m-947 3
l-3 -83 -154 -7 c-85 -4 -156 -6 -158 -4 -2 2 -6 39 -10 84 l-6 81 54 4 c30 2
105 4 167 5 l113 2 -3 -82z m325 67 c16 -7 17 -16 11 -84 -4 -42 -8 -77 -9
-79 -1 -1 -71 1 -156 5 l-154 8 -3 84 -3 84 148 -6 c81 -3 156 -9 166 -12z
m-669 -17 c3 -7 7 -45 10 -84 l6 -71 -103 -18 c-56 -10 -121 -23 -144 -30
l-42 -13 -11 57 c-6 31 -13 68 -16 82 -6 33 -3 34 146 64 136 28 149 29 154
13z m897 -24 l106 -25 -14 -77 c-8 -42 -16 -79 -19 -81 -2 -2 -36 3 -76 12
-40 9 -103 22 -140 28 -77 12 -73 6 -61 118 l6 63 46 -7 c25 -3 94 -17 152
-31z m-1738 -61 c3 -49 11 -111 18 -140 l12 -52 -39 -43 c-22 -24 -49 -56 -60
-72 l-21 -29 -16 89 c-22 122 -24 184 -8 214 18 33 91 120 100 120 5 0 11 -39
14 -87z m2320 41 c43 -14 47 -18 47 -47 -1 -39 -25 -165 -33 -173 -3 -4 -19 5
-35 18 -16 14 -60 42 -97 64 l-67 39 7 45 c3 25 8 57 11 71 l5 27 57 -15 c31
-8 78 -21 105 -29z m-1784 -90 c7 -42 9 -80 4 -84 -4 -4 -39 -17 -78 -30 -38
-12 -87 -31 -107 -41 -21 -11 -42 -19 -47 -19 -14 0 -46 149 -34 161 11 11
213 88 234 89 11 0 18 -19 28 -76z m1454 36 c56 -22 108 -44 115 -48 11 -7 10
-22 -4 -78 -9 -38 -20 -72 -24 -77 -3 -4 -31 3 -61 16 -30 13 -85 34 -122 46
-53 18 -67 27 -63 39 4 15 26 131 26 139 0 10 44 -2 133 -37z m477 7 c38 -19
46 -55 32 -160 -6 -50 -17 -110 -23 -132 l-11 -40 -17 25 c-9 14 -35 45 -57
70 l-42 45 14 70 c7 39 16 87 19 108 6 36 8 38 33 32 15 -3 38 -12 52 -18z
m-2613 -24 c-3 -10 -5 -4 -5 12 0 17 2 24 5 18 2 -7 2 -21 0 -30z m2680 -15
c-3 -8 -6 -5 -6 6 -1 11 2 17 5 13 3 -3 4 -12 1 -19z m-1349 -95 l-3 -78 -145
-7 c-80 -3 -146 -5 -147 -4 -3 3 -21 141 -18 144 5 6 162 19 238 21 l78 1 -3
-77z m286 61 l38 -7 -7 -71 c-4 -39 -8 -72 -9 -73 -1 -1 -67 1 -146 5 l-145 7
-3 79 -3 79 118 -6 c65 -4 135 -10 157 -13z m-1201 -83 c10 -41 16 -75 15 -76
-2 -1 -21 -12 -43 -23 -22 -11 -62 -36 -90 -56 -27 -20 -52 -32 -56 -28 -4 4
-16 36 -28 72 l-20 65 32 28 c44 38 161 107 168 99 3 -4 13 -40 22 -81z m2019
-11 l41 -36 -22 -72 c-12 -40 -23 -72 -25 -72 -2 0 -39 24 -83 54 -44 29 -87
56 -94 58 -11 4 -10 20 6 86 l18 82 59 -33 c32 -17 77 -48 100 -67z m-1427 43
c3 -27 9 -60 11 -76 4 -17 1 -28 -8 -31 -17 -5 -228 -47 -248 -49 -10 -1 -18
14 -26 48 -20 85 -19 93 24 105 28 8 185 41 234 49 4 1 10 -20 13 -46z m903
-2 c23 -7 42 -16 42 -22 0 -5 -7 -39 -16 -75 -13 -51 -20 -63 -33 -59 -42 13
-199 45 -225 45 l-28 0 7 73 c4 39 9 75 11 78 4 7 171 -21 242 -40z m-1882
-135 c15 -73 14 -82 -3 -137 -10 -32 -21 -59 -24 -59 -4 0 -9 24 -13 53 -16
149 -18 196 -5 253 l13 59 8 -45 c5 -25 16 -80 24 -124z m2659 16 c0 -70 -4
-154 -8 -186 l-9 -59 -23 68 -23 69 19 90 c10 50 19 109 19 131 0 31 3 37 13
27 8 -9 12 -52 12 -140z m-1979 71 c3 -16 10 -44 15 -63 14 -53 12 -55 -38
-68 -26 -7 -78 -27 -116 -43 -38 -17 -70 -29 -71 -27 -13 15 -44 134 -38 140
13 13 204 87 224 88 11 0 20 -10 24 -27z m1350 3 c38 -13 90 -33 116 -44 l47
-21 -21 -63 c-11 -35 -24 -67 -28 -71 -4 -5 -25 0 -46 11 -22 10 -70 29 -109
42 -38 12 -73 24 -77 26 -5 3 12 87 27 132 6 16 11 16 91 -12z m-1853 -117
l24 -75 -59 -63 -58 -63 -11 28 c-38 98 -39 105 -25 132 15 29 96 125 102 120
1 -2 14 -37 27 -79z m2350 6 c26 -33 47 -67 47 -77 0 -26 -40 -128 -51 -128
-5 0 -9 4 -9 9 0 5 -23 34 -50 64 l-50 55 22 71 c13 39 28 69 33 68 6 -2 31
-30 58 -62z m-1223 -115 l0 -170 -33 0 c-19 0 -74 -3 -123 -6 l-90 -7 -22 149
c-13 82 -25 157 -27 166 -4 23 49 32 223 36 l72 2 0 -170z m212 162 c42 -4 80
-11 84 -14 7 -8 -35 -300 -46 -319 -6 -8 -40 -9 -124 -4 l-116 7 0 169 0 169
63 -1 c34 0 97 -4 139 -7z m-1088 -69 c10 -32 20 -63 23 -69 3 -8 -124 -100
-168 -122 -7 -3 -64 127 -58 131 2 2 22 17 44 33 42 32 126 84 136 84 3 0 13
-26 23 -57z m571 25 c23 -141 46 -300 43 -302 -5 -4 -212 -46 -214 -43 -7 7
-94 292 -94 307 0 15 17 22 93 39 174 39 165 39 172 -1z m790 1 c49 -10 90
-19 92 -19 12 0 -79 -305 -95 -322 -11 -11 -223 36 -218 48 2 6 14 76 26 155
12 79 23 150 26 157 4 14 19 13 169 -19z m568 -62 l37 -32 -30 -63 -30 -63
-57 39 c-32 22 -72 47 -90 56 l-32 16 20 58 c12 31 23 63 25 70 5 17 101 -33
157 -81z m-1599 -119 c27 -84 50 -157 52 -163 2 -5 -31 -23 -74 -38 -128 -47
-111 -55 -181 87 -34 69 -64 138 -67 154 -7 33 -19 25 131 81 44 16 82 30 85
30 3 1 27 -68 54 -151z m1212 132 c32 -11 83 -30 112 -42 65 -27 66 -23 -23
-204 l-65 -131 -82 33 c-46 19 -89 34 -95 34 -7 0 -13 3 -13 6 0 3 21 72 46
153 25 80 48 152 50 159 4 15 0 16 70 -8z m-1901 -160 c4 -7 0 -38 -10 -69
-10 -31 -20 -63 -22 -71 -3 -8 -15 11 -29 43 -22 52 -24 64 -15 113 6 30 15
64 22 75 10 20 13 18 29 -29 10 -28 21 -56 25 -62z m170 43 l28 -63 -34 -37
c-19 -21 -44 -51 -55 -68 l-22 -29 -31 62 c-26 52 -30 66 -20 84 12 22 100
120 104 116 1 -2 15 -31 30 -65z m2271 -56 c4 -12 -5 -43 -22 -78 l-27 -58
-57 62 -57 61 31 70 30 69 48 -53 c26 -30 51 -62 54 -73z m110 11 c5 -42 1
-63 -16 -103 l-22 -50 -20 60 c-25 77 -25 69 2 144 l24 65 13 -32 c7 -17 15
-55 19 -84z m-2138 40 c9 -24 41 -92 71 -153 50 -100 53 -110 36 -120 -10 -5
-40 -25 -68 -44 l-50 -34 -28 34 c-37 45 -149 231 -149 247 0 12 144 112 162
112 5 0 17 -19 26 -42z m1764 -9 c43 -28 78 -54 78 -58 0 -17 -166 -281 -178
-281 -2 0 -31 18 -64 40 -33 22 -64 40 -68 40 -5 0 23 65 61 144 38 79 69 148
69 155 0 20 23 11 102 -40z m-1952 -100 c8 -17 46 -81 86 -141 l73 -110 -44
-54 -44 -53 -47 52 c-76 85 -147 195 -140 220 6 24 82 117 96 117 4 0 13 -14
20 -31z m2137 -73 c14 -27 13 -30 -33 -100 -55 -83 -132 -176 -146 -176 -5 0
-29 21 -52 47 l-43 47 62 90 c34 50 74 115 90 144 l29 53 39 -38 c21 -21 45
-51 54 -67z m-2304 -85 l-20 -65 -28 48 c-24 41 -27 55 -22 101 3 29 11 64 18
76 11 22 13 21 41 -36 l30 -58 -19 -66z m2433 85 c5 -36 2 -53 -21 -95 -16
-28 -29 -50 -31 -49 -1 2 -11 30 -22 62 l-20 59 32 58 c30 57 31 57 44 34 7
-14 15 -44 18 -69z m-1261 -96 l0 -145 -71 -5 c-95 -7 -102 -4 -114 38 -16 61
-50 235 -47 238 4 5 162 19 202 19 l30 0 0 -145z m211 134 c33 -4 41 -9 38
-22 -2 -9 -15 -72 -30 -139 l-27 -123 -89 0 -88 0 0 143 c0 79 3 146 6 149 5
6 117 1 190 -8z m-433 -140 c16 -75 27 -137 25 -139 -2 -1 -39 -6 -84 -9 l-81
-7 -46 112 c-26 61 -47 117 -47 124 0 12 76 34 170 48 14 3 27 5 30 6 3 0 18
-60 33 -135z m615 110 c45 -9 82 -20 82 -24 0 -5 -45 -117 -87 -217 -4 -9 -33
-13 -95 -13 -75 0 -89 2 -85 15 6 14 57 250 57 260 0 3 10 3 23 1 12 -3 59
-13 105 -22z m-829 -126 c62 -151 62 -138 -2 -138 -30 0 -68 -3 -85 -6 -30 -6
-33 -3 -88 81 -34 52 -53 90 -47 96 8 8 158 67 173 69 3 0 25 -46 49 -102z
m993 83 c30 -10 71 -27 91 -38 l37 -19 -52 -79 -53 -80 -83 1 c-45 1 -85 4
-88 7 -3 3 12 47 34 98 21 52 42 102 45 112 8 21 2 21 69 -2z m-1633 -101 c28
-41 67 -94 87 -116 l35 -42 -56 -7 c-30 -3 -59 -4 -65 0 -5 3 -30 33 -56 66
-42 55 -46 64 -40 99 8 49 27 93 36 83 4 -5 30 -42 59 -83z m2262 -7 c4 -31
-25 -84 -66 -123 -21 -20 -34 -23 -78 -21 -28 1 -54 4 -56 6 -2 2 17 28 41 57
25 29 64 82 88 117 l43 65 13 -36 c7 -20 14 -49 15 -65z m-2372 -70 c-1 -24
-5 -18 -29 32 -38 79 -38 103 0 43 17 -27 30 -60 29 -75z m561 30 c70 -112 71
-114 23 -98 -23 9 -58 12 -89 8 -50 -5 -51 -5 -87 39 -21 25 -37 48 -37 52 0
7 119 86 129 86 3 0 31 -40 61 -87z m1397 46 c35 -23 63 -44 63 -48 -1 -3 -20
-28 -43 -54 -42 -48 -43 -48 -72 -33 -17 9 -51 16 -77 16 l-47 0 51 80 c28 44
53 80 56 80 3 0 34 -19 69 -41z m484 13 c-5 -15 -18 -46 -29 -67 -18 -35 -21
-37 -22 -16 0 21 44 111 55 111 2 0 0 -13 -4 -28z m-2053 -111 l31 -39 -31 -6
c-39 -8 -108 -8 -108 0 0 10 61 84 69 84 4 0 22 -17 39 -39z m1712 -32 c0 -4
-31 -9 -69 -11 -77 -3 -76 -8 -17 60 l20 22 33 -32 c18 -17 33 -35 33 -39z
m-2047 12 c20 -26 37 -51 37 -55 0 -3 -11 -6 -25 -6 -21 0 -26 8 -40 52 -22
75 -22 75 28 9z m2308 -14 c-7 -17 -18 -27 -31 -27 -26 0 -25 4 8 46 29 37 40
27 23 -19z m-1326 -216 c6 -156 5 -182 -10 -210 -23 -46 -67 -61 -174 -61
-161 0 -170 13 -181 254 -4 94 -5 174 -1 177 3 4 39 10 78 14 61 6 74 5 79 -9
3 -8 9 -74 12 -146 10 -182 28 -168 23 17 l-3 142 73 3 c41 2 79 2 85 0 8 -2
14 -62 19 -181z m360 109 l0 -75 -37 -3 -38 -3 0 -145 0 -144 -85 0 -85 0 0
145 0 145 -33 0 c-18 0 -38 5 -45 12 -16 16 -16 120 0 136 9 9 55 12 168 10
l155 -3 0 -75z m350 65 c71 -3 133 -9 137 -13 4 -4 4 -33 1 -65 l-6 -57 -138
0 c-77 0 -139 -4 -139 -9 0 -5 53 -12 118 -16 64 -3 123 -8 130 -10 13 -5 16
-54 6 -92 -6 -22 -10 -23 -130 -23 -68 0 -124 -4 -124 -9 0 -10 99 -21 196
-21 l74 0 0 -64 c0 -36 -3 -67 -8 -70 -12 -7 -424 12 -433 21 -10 10 5 415 15
432 5 7 35 9 89 6 45 -2 140 -7 212 -10z m-1171 -27 c41 -18 57 -53 67 -146
19 -189 11 -244 -44 -274 -27 -14 -279 -38 -291 -27 -12 11 -44 429 -34 436
10 5 157 19 230 22 26 0 58 -4 72 -11z m1626 -3 c91 -8 166 -15 168 -15 4 0 2
-57 -5 -105 l-6 -47 -56 6 c-31 3 -92 8 -137 12 l-81 6 -7 -67 c-4 -37 -5 -70
-2 -72 3 -3 65 -10 138 -17 l133 -11 -4 -70 c-2 -38 -7 -72 -12 -75 -15 -10
-334 21 -366 35 -63 28 -68 49 -56 212 12 155 22 183 74 210 30 16 20 16 219
-2z m-1966 -52 c3 -21 6 -50 6 -64 0 -30 6 -28 -172 -50 -88 -10 -113 -19 -90
-32 4 -2 58 2 121 10 63 7 118 10 122 6 4 -4 10 -31 14 -60 8 -61 19 -55 -142
-74 -79 -8 -103 -15 -103 -26 0 -11 8 -13 28 -9 71 14 235 27 242 20 5 -5 11
-34 15 -65 l7 -56 -34 -6 c-76 -13 -390 -48 -401 -44 -15 5 -68 418 -55 432 8
9 318 52 394 54 40 1 42 0 48 -36z m2280 22 l59 -7 -7 -75 c-4 -57 -3 -74 7
-71 7 3 16 34 21 71 8 67 8 67 40 66 40 0 125 -14 131 -21 6 -5 -41 -402 -50
-426 -4 -11 -20 -12 -68 -7 -104 11 -99 6 -91 91 5 50 3 74 -4 74 -6 0 -13
-21 -17 -47 -9 -77 -18 -98 -40 -96 -136 13 -135 12 -135 45 0 53 41 372 51
396 6 15 15 22 27 18 9 -2 44 -7 76 -11z m-227 -185 c37 0 44 -3 41 -17 -3
-16 -13 -17 -78 -14 -86 3 -96 7 -79 28 9 10 23 13 42 9 16 -3 50 -6 74 -6z
m-1182 -206 c7 -33 54 -47 144 -43 60 3 84 9 100 23 20 18 22 18 41 1 10 -9
40 -20 65 -22 36 -5 42 -8 30 -17 -10 -7 -66 -9 -178 -6 -89 3 -181 3 -204 1
-40 -3 -43 -5 -43 -32 0 -39 -28 -38 -41 1 -10 28 -14 30 -64 30 -71 0 -79 16
-11 22 64 5 106 33 132 85 l19 38 3 -30 c1 -16 5 -40 7 -51z m-389 -42 c-2 -1
-17 1 -35 4 -25 5 -29 9 -20 20 9 11 15 10 34 -4 13 -9 22 -18 21 -20z m18
-19 l61 -7 -49 -7 c-36 -6 -57 -4 -78 7 -30 16 -39 30 -11 20 9 -4 44 -10 77
-13z m844 10 c-10 -2 -26 -2 -35 0 -10 3 -2 5 17 5 19 0 27 -2 18 -5z m152 -8
c0 -14 -45 -25 -73 -19 -32 7 -32 7 -7 15 29 8 80 11 80 4z m-840 -20 c10 -12
9 -15 -6 -16 -11 -1 -31 -3 -46 -5 -22 -2 -28 1 -28 17 0 15 7 19 34 19 18 0
39 -7 46 -15z m640 11 c0 -2 -7 -7 -16 -10 -8 -3 -12 -2 -9 4 6 10 25 14 25 6z
m-530 -49 c0 -50 18 -81 46 -75 16 3 20 13 22 61 l3 57 34 0 35 0 0 -56 c0
-30 -5 -64 -10 -74 -21 -40 -132 -48 -171 -13 -17 15 -35 115 -24 133 3 5 19
10 36 10 28 0 29 -2 29 -43z m350 23 c0 -16 -7 -20 -30 -20 l-30 0 0 -60 0
-60 -35 0 -35 0 0 60 0 60 -30 0 c-23 0 -30 4 -30 20 0 19 7 20 95 20 88 0 95
-1 95 -20z m100 -60 l0 -80 -35 0 -35 0 0 80 0 80 35 0 35 0 0 -80z m195 66
c55 -23 72 -82 36 -127 -14 -18 -30 -23 -77 -26 -68 -4 -103 10 -122 50 -19
39 -4 78 39 99 41 22 78 23 124 4z m-845 -56 l0 -60 60 0 c53 0 60 -2 60 -20
0 -19 -7 -20 -95 -20 l-95 0 0 80 0 80 35 0 35 0 0 -60z m997 52 c12 -4 40
-31 63 -61 l40 -55 0 51 c0 27 2 52 5 55 3 2 18 3 35 0 29 -4 30 -7 30 -52 0
-26 -3 -62 -6 -79 -6 -28 -10 -31 -44 -31 -34 0 -41 5 -76 56 -36 52 -39 54
-45 33 -4 -13 -7 -37 -8 -52 -1 -26 -4 -28 -33 -25 -27 2 -33 7 -32 26 0 12 1
49 2 82 2 65 9 69 69 52z m-1115 -32 c25 -26 29 -36 24 -63 -3 -18 -15 -40
-26 -49 -24 -20 -99 -33 -134 -24 -76 19 -86 118 -16 153 14 7 47 13 73 13 41
0 53 -5 79 -30z m238 0 c0 -16 -7 -20 -32 -20 -42 0 -78 10 -78 21 0 4 24 10
53 12 28 2 53 4 55 5 1 1 2 -7 2 -18z m547 -2 c-3 -8 -6 -5 -6 6 -1 11 2 17 5
13 3 -3 4 -12 1 -19z m253 0 c0 -19 -2 -20 -10 -8 -13 19 -13 30 0 30 6 0 10
-10 10 -22z m-1289 2 c10 -6 19 -18 19 -27 0 -13 -8 -15 -50 -10 -27 3 -52 2
-55 -4 -4 -5 12 -9 35 -9 54 0 80 -15 80 -45 0 -62 -162 -88 -184 -29 -6 15
18 19 82 15 17 -2 32 2 32 8 0 7 -22 11 -54 11 -59 0 -82 16 -71 50 13 42 116
66 166 40z m1733 -11 c14 -11 26 -25 26 -30 0 -13 -57 -11 -82 2 -13 7 -24 7
-30 1 -6 -6 6 -12 35 -16 56 -9 83 -35 67 -66 -25 -48 -127 -51 -170 -5 -31
33 -21 40 34 26 54 -13 69 -14 62 -2 -6 9 -62 21 -103 22 -15 1 -23 7 -23 18
0 14 2 14 10 1 8 -12 10 -10 10 9 0 42 27 61 85 61 38 0 60 -6 79 -21z m-961
4 c-7 -2 -21 -2 -30 0 -10 3 -4 5 12 5 17 0 24 -2 18 -5z m-143 -28 c0 -8 -9
-15 -20 -15 -11 0 -20 7 -20 15 0 8 9 15 20 15 11 0 20 -7 20 -15z m310 0 c0
-16 -17 -19 -45 -9 -13 5 -14 8 -3 15 21 14 48 10 48 -6z m-480 -15 c23 -7 23
-8 -12 -15 -44 -9 -68 -2 -68 20 0 16 7 15 80 -5z m320 0 c0 -5 -13 -10 -30
-10 -16 0 -30 5 -30 10 0 6 14 10 30 10 17 0 30 -4 30 -10z"/>
<path d="M1717 1293 c5 -86 11 -113 23 -113 11 0 13 51 4 128 -4 31 -12 52
-19 52 -9 0 -12 -18 -8 -67z"/>
<path d="M2821 926 c-7 -8 -10 -24 -6 -35 15 -47 89 -32 83 17 -2 22 -9 28
-34 30 -18 2 -36 -3 -43 -12z m69 -21 c0 -17 -29 -34 -47 -28 -19 7 -16 31 5
36 32 9 42 7 42 -8z"/>
<path d="M1836 917 c-28 -21 -17 -61 17 -65 49 -6 73 30 41 62 -19 19 -35 20
-58 3z m57 -21 c7 -17 -11 -36 -34 -36 -22 0 -33 16 -25 35 7 19 52 19 59 1z"/>
<path d="M4210 3014 c0 -20 -66 -84 -86 -84 -8 0 -14 -4 -14 -10 0 -5 6 -10
14 -10 20 0 86 -64 86 -84 0 -9 5 -16 10 -16 6 0 10 7 10 15 0 8 16 30 35 50
20 19 42 35 50 35 8 0 15 5 15 10 0 6 -7 10 -15 10 -8 0 -30 16 -50 35 -19 20
-35 42 -35 50 0 8 -4 15 -10 15 -5 0 -10 -7 -10 -16z"/>
</g>
</svg>
